<svg width="11" height="11" xmlns="http://www.w3.org/2000/svg" xmlns:xlink="http://www.w3.org/1999/xlink" overflow="hidden"><defs><clipPath id="clip0"><rect x="341" y="187" width="11" height="11"/></clipPath></defs><g clip-path="url(#clip0)" transform="translate(-341 -187)"><path d="M345.354 188.833 345.927 188.833 345.927 189.292 345.354 189.292Z" stroke="#FFFFFF" stroke-width="0.666667" fill="#FFFFFF"/><path d="M343.979 191.583 344.552 191.583 344.552 192.042 343.979 192.042Z" stroke="#FFFFFF" stroke-width="0.666667" fill="#FFFFFF"/><path d="M342.604 194.333 343.177 194.333 343.177 194.792 342.604 194.792Z" stroke="#FFFFFF" stroke-width="0.666667" fill="#FFFFFF"/><path d="M345.354 194.333 345.927 194.333 345.927 194.792 345.354 194.792Z" stroke="#FFFFFF" stroke-width="0.666667" fill="#FFFFFF"/><path d="M348.104 194.333 348.677 194.333 348.677 194.792 348.104 194.792Z" stroke="#FFFFFF" stroke-width="0.666667" fill="#FFFFFF"/><path d="M347.76 189.3C347.68 189.348 347.603 189.403 347.531 189.465L347.531 191.01 346.977 191.01C346.99 191.088 347.009 191.165 347.034 191.24L348.906 191.24 348.906 192.358C348.984 192.344 349.061 192.324 349.135 192.3L349.135 191.01 347.76 191.01Z" stroke="#FFFFFF" stroke-width="0.666667" fill="#FFFFFF"/><path d="M350.281 195.331 350.281 196.51 347.76 196.51 347.76 193.99 349.48 193.99 349.434 193.911C349.406 193.864 349.382 193.813 349.365 193.76L349.135 193.76 349.135 193.249C349.06 193.264 348.984 193.276 348.906 193.285L348.906 193.76 346.385 193.76 346.385 192.021C346.292 191.861 346.215 191.691 346.158 191.515 346.157 191.511 346.156 191.511 346.156 191.515L346.156 193.76 343.635 193.76 343.635 191.24 346.086 191.24C346.07 191.164 346.059 191.088 346.05 191.01L345.01 191.01 345.01 188.49 347.328 188.49C347.466 188.41 347.611 188.344 347.76 188.291L347.76 188.26 344.781 188.26 344.781 191.01 343.406 191.01 343.406 193.76 342.031 193.76 342.031 196.74 350.51 196.74 350.51 195.561C350.419 195.501 350.341 195.422 350.281 195.331ZM344.781 196.51 342.26 196.51 342.26 193.99 344.781 193.99ZM347.531 196.51 345.01 196.51 345.01 193.99 347.531 193.99Z" stroke="#FFFFFF" stroke-width="0.666667" fill="#FFFFFF"/><path d="M351.591 194.511 350.764 193.121C350.613 192.899 350.325 192.817 350.081 192.928L349.868 192.571C350.88 191.878 351.139 190.497 350.446 189.485 349.754 188.473 348.372 188.215 347.361 188.907 346.349 189.599 346.09 190.981 346.783 191.992 347.425 192.931 348.673 193.232 349.672 192.69L349.883 193.044C349.797 193.117 349.731 193.211 349.694 193.317 349.642 193.455 349.655 193.608 349.729 193.736L350.556 195.126C350.653 195.279 350.824 195.37 351.005 195.365 351.124 195.364 351.24 195.331 351.342 195.27 351.474 195.194 351.575 195.073 351.626 194.929 351.678 194.791 351.665 194.638 351.591 194.511ZM346.617 190.929C346.504 189.828 347.305 188.843 348.407 188.729 349.508 188.616 350.493 189.417 350.606 190.519 350.72 191.621 349.919 192.606 348.817 192.719 348.681 192.733 348.543 192.733 348.407 192.719 347.462 192.621 346.715 191.874 346.617 190.929ZM351.41 194.854C351.376 194.947 351.31 195.024 351.225 195.073 351.048 195.177 350.837 195.149 350.753 195.008L349.926 193.618C349.887 193.549 349.881 193.466 349.91 193.392 349.944 193.3 350.009 193.223 350.095 193.174 350.162 193.133 350.238 193.112 350.316 193.111 350.416 193.106 350.512 193.154 350.567 193.238L351.394 194.628C351.432 194.697 351.438 194.78 351.41 194.854Z" stroke="#FFFFFF" stroke-width="0.666667" fill="#FFFFFF"/></g></svg>