<svg viewBox="0 0 112 96" xmlns="http://www.w3.org/2000/svg" fill-rule="evenodd" clip-rule="evenodd" stroke-linejoin="round" stroke-miterlimit="1.414"><path fill="#e5f20d" fill-opacity=".647" d="M0 40.386h111.96V95.62H0z"></path><path d="M93.61 61.452c0 .987-.328 1.831-.987 2.53-.657.7-1.52 1.048-2.591 1.048-1.481 0-2.222-.74-2.222-2.22 0-16.617-.533-29.347-1.604-38.192-1.068-8.842-2.92-13.265-5.552-13.265-4.443 0-10.94 15.509-19.497 46.52v.124c0 .987-.328 1.831-.987 2.53-.657.7-1.52 1.048-2.592 1.048-1.48 0-2.22-.74-2.22-2.22 0-3.29.165-8.392.493-15.302.33-7.732.494-13.82.494-18.262 0-6.17-.186-10.55-.556-13.142-.37-2.591-1.172-3.887-2.406-3.887-2.796 0-6.333 5.12-10.612 15.363C38.494 34.367 34.01 46.44 29.32 60.34l-1.11 3.209a5.714 5.714 0 01-1.42 2.097c-.617.578-1.295.864-2.036.864-.987 0-1.644-.081-1.974-.247-.328-.162-.533-.656-.617-1.48-.41-4.03-.74-9.418-.987-16.165-.163-1.728-.329-4.566-.494-8.515-.822-13.901-1.562-23.3-2.221-28.196-.657-4.893-.987-7.628-.987-8.205 0-.657.33-1.44.987-2.345.659-.903 1.276-1.357 1.85-1.357 1.319 0 2.387.947 3.21 2.838.411.906.863 4.526 1.357 10.859.493 6.335.905 14.19 1.233 23.568l.617 18.88c4.527-13.983 9.216-26.673 14.068-38.068C45.65 6.686 50.093.988 54.123.988c2.715 0 4.566 1.974 5.553 5.923.987 3.949 1.481 9.667 1.481 17.152 0 3.949-.081 9.625-.247 17.029l-.123 5.676c3.373-11.762 6.725-21.634 10.057-29.615 3.331-7.979 6.685-11.97 10.056-11.97 8.475 0 12.71 18.757 12.71 56.269z" fill-rule="nonzero"></path></svg>