<svg width="11" height="8" xmlns="http://www.w3.org/2000/svg" xmlns:xlink="http://www.w3.org/1999/xlink" overflow="hidden"><defs><clipPath id="clip0"><rect x="668" y="287" width="11" height="8"/></clipPath></defs><g clip-path="url(#clip0)" transform="translate(-668 -287)"><path d="M6.55 1.41667 1.45 1.41667C1.2926 1.41758 1.16575 1.54593 1.16667 1.70333 1.16667 1.70333 1.16667 1.70333 1.16667 1.70333L1.16667 5.14833C1.16574 5.30573 1.29259 5.43408 1.44999 5.435 1.44999 5.435 1.45 5.435 1.45 5.435L4.56667 5.435 5.7 6.58333 5.7 5.435 6.55 5.435C6.7074 5.43408 6.83425 5.30574 6.83333 5.14834 6.83333 5.14834 6.83333 5.14833 6.83333 5.14833L6.83333 1.70333C6.83426 1.54593 6.70741 1.41759 6.55001 1.41667 6.55001 1.41667 6.55 1.41667 6.55 1.41667ZM2.66667 3.83333C2.43655 3.83333 2.25 3.64678 2.25 3.41667 2.25 3.18655 2.43655 3 2.66667 3 2.89678 3 3.08333 3.18655 3.08333 3.41667 3.08333 3.64678 2.89678 3.83333 2.66667 3.83333ZM4 3.83333C3.76988 3.83333 3.58333 3.64678 3.58333 3.41667 3.58333 3.18655 3.76988 3 4 3 4.23012 3 4.41667 3.18655 4.41667 3.41667 4.41667 3.64678 4.23012 3.83333 4 3.83333ZM5.33333 3.83333C5.10322 3.83333 4.91667 3.64678 4.91667 3.41667 4.91667 3.18655 5.10322 3 5.33333 3 5.56345 3 5.75 3.18655 5.75 3.41667 5.75 3.64678 5.56345 3.83333 5.33333 3.83333Z" fill="#FFFFFF" transform="matrix(1.375 0 0 1 668 287)"/></g></svg>