<svg width="11" height="8" xmlns="http://www.w3.org/2000/svg" xmlns:xlink="http://www.w3.org/1999/xlink" overflow="hidden"><defs><clipPath id="clip0"><rect x="632" y="287" width="11" height="8"/></clipPath></defs><g clip-path="url(#clip0)" transform="translate(-632 -287)"><path d="M1.91667 6.83333 1.91667 1.16667 4 1.16667 4 2.91667 6.08333 2.91667 6.08333 6.83333 1.91667 6.83333ZM4.5 1.375 5.54167 2.41667 4.5 2.41667 4.5 1.375ZM4.5 0.666667 1.41667 0.666667 1.41667 7.33333 6.58333 7.33333 6.58333 2.5 4.5 0.666667Z" fill="#FFFFFF" transform="matrix(1.375 0 0 1 632 287)"/><path d="M2.41667 3.75 5.58333 3.75 5.58333 4.08333 2.41667 4.08333Z" fill="#FFFFFF" transform="matrix(1.375 0 0 1 632 287)"/><path d="M2.41667 3.08333 3.5 3.08333 3.5 3.41667 2.41667 3.41667Z" fill="#FFFFFF" transform="matrix(1.375 0 0 1 632 287)"/><path d="M2.41667 4.41667 5.58333 4.41667 5.58333 4.75 2.41667 4.75Z" fill="#FFFFFF" transform="matrix(1.375 0 0 1 632 287)"/><path d="M2.41667 5.08333 5.58333 5.08333 5.58333 5.41667 2.41667 5.41667Z" fill="#FFFFFF" transform="matrix(1.375 0 0 1 632 287)"/><path d="M2.41667 5.75 5.58333 5.75 5.58333 6.08333 2.41667 6.08333Z" fill="#FFFFFF" transform="matrix(1.375 0 0 1 632 287)"/></g></svg>