<svg width="12" height="12" xmlns="http://www.w3.org/2000/svg" xmlns:xlink="http://www.w3.org/1999/xlink" overflow="hidden"><defs><clipPath id="clip0"><rect x="401" y="187" width="12" height="12"/></clipPath></defs><g clip-path="url(#clip0)" transform="translate(-401 -187)"><path d="M407.5 195 403.438 195 404.802 191.702C404.821 191.655 404.867 191.625 404.917 191.625L410.883 191.625C410.952 191.625 411.008 191.681 411.008 191.75 411.008 191.767 411.004 191.783 410.998 191.799L410.51 192.951 410.74 193.049 411.228 191.896C411.309 191.705 411.219 191.485 411.029 191.405 410.982 191.385 410.933 191.375 410.883 191.375L404.917 191.375C404.765 191.375 404.628 191.466 404.571 191.607L403.062 195.25 407.5 195.25Z" stroke="#FFFFFF" stroke-width="0.666666" fill="#FFFFFF"/><path d="M410.819 193.681C410.162 193.021 409.094 193.018 408.434 193.675 407.806 194.3 407.768 195.305 408.349 195.975L408.139 196.184C407.97 196.093 407.76 196.123 407.623 196.258L406.753 197.128C406.582 197.299 406.582 197.576 406.753 197.747 406.924 197.918 407.201 197.918 407.372 197.747L408.242 196.877C408.378 196.74 408.408 196.531 408.316 196.361L408.525 196.151C409.229 196.761 410.294 196.685 410.904 195.981 411.484 195.311 411.447 194.306 410.819 193.681ZM408.609 193.858C409.024 193.444 409.648 193.323 410.188 193.552L409.544 195 408.195 195C408.157 194.577 408.309 194.158 408.609 193.858ZM408.065 196.7 407.195 197.57C407.122 197.643 407.003 197.643 406.93 197.57 406.857 197.497 406.857 197.378 406.93 197.305L407.8 196.435C407.873 196.361 407.992 196.361 408.065 196.435 408.139 196.508 408.139 196.627 408.065 196.7ZM410.642 195.891C410.083 196.452 409.174 196.454 408.613 195.894 408.434 195.716 408.305 195.494 408.24 195.25L409.706 195.25 410.409 193.669C411.074 194.101 411.264 194.99 410.833 195.655 410.778 195.74 410.714 195.819 410.642 195.891Z" stroke="#FFFFFF" stroke-width="0.666666" fill="#FFFFFF"/><path d="M405.302 189.375C405.326 189.375 405.349 189.382 405.369 189.395L406.621 190.191C406.682 190.23 406.751 190.25 406.823 190.25L410 190.25C410.069 190.25 410.125 190.306 410.125 190.375L410.125 191.125 410.375 191.125 410.375 190.375C410.375 190.168 410.207 190 410 190L406.823 190C406.799 190 406.776 189.993 406.756 189.98L405.504 189.184C405.443 189.145 405.374 189.125 405.302 189.125L403.125 189.125C402.918 189.125 402.75 189.293 402.75 189.5L402.75 195.25 403 195.25 403 189.5C403 189.431 403.056 189.375 403.125 189.375Z" stroke="#FFFFFF" stroke-width="0.666666" fill="#FFFFFF"/></g></svg>